<!-- Simple SVG icon placeholders since we can't create actual PNG files -->
<!-- You can convert these to PNG files using any online SVG to PNG converter -->

<!-- Icon 16x16 - Save as icons/icon16.png -->
<svg width="16" height="16" viewBox="0 0 16 16" fill="none" xmlns="http://www.w3.org/2000/svg">
  <rect width="16" height="16" rx="3" fill="#4F46E5"/>
  <path d="M4 8L6.5 10.5L12 5" stroke="white" stroke-width="2" stroke-linecap="round" stroke-linejoin="round"/>
</svg>

<!-- Icon 48x48 - Save as icons/icon48.png -->
<svg width="48" height="48" viewBox="0 0 48 48" fill="none" xmlns="http://www.w3.org/2000/svg">
  <rect width="48" height="48" rx="8" fill="#4F46E5"/>
  <path d="M12 24L19.5 31.5L36 15" stroke="white" stroke-width="4" stroke-linecap="round" stroke-linejoin="round"/>
  <circle cx="24" cy="12" r="3" fill="white"/>
  <rect x="18" y="18" width="12" height="2" rx="1" fill="white"/>
  <rect x="18" y="22" width="8" height="2" rx="1" fill="white"/>
</svg>

<!-- Icon 128x128 - Save as icons/icon128.png -->
<svg width="128" height="128" viewBox="0 0 128 128" fill="none" xmlns="http://www.w3.org/2000/svg">
  <rect width="128" height="128" rx="20" fill="#4F46E5"/>
  <circle cx="64" cy="32" r="8" fill="white"/>
  <rect x="48" y="48" width="32" height="6" rx="3" fill="white"/>
  <rect x="48" y="58" width="24" height="6" rx="3" fill="white"/>
  <rect x="48" y="68" width="28" height="6" rx="3" fill="white"/>
  <path d="M32 64L51 83L96 38" stroke="white" stroke-width="8" stroke-linecap="round" stroke-linejoin="round"/>
</svg>
